<?xml version="1.0" encoding="UTF-8"?>
<svg width="auto" height="4rem" version="1.1" viewBox="0 0 309.49 66.991" xmlns="http://www.w3.org/2000/svg">
 <g transform="translate(90.877 -45.173)">
  <path d="m185.7 110.51-4.7625-1.6348-0.0683-15.237-0.0683-15.237 0.65998-2.6018c0.87757-3.4594 2.3535-6.0481 4.9007-8.5952 3.7707-3.7706 7.7326-5.3661 13.361-5.3806 3.8656-0.01 6.4537 0.61687 9.3209 2.2574 2.7303 1.5622 4.689 3.4162 6.4625 6.117 2.076 3.1616 2.8987 5.7328 3.0684 9.5902 0.10554 2.3993 0.0283 3.3293-0.42878 5.1594-2.0677 8.2796-9.0403 14.07-17.43 14.474-3.0844 0.14864-4.846-0.13027-7.8063-1.236l-2.0505-0.76589v7.3816c0 4.0599-0.0893 7.3731-0.19844 7.3627s-2.3416-0.75453-4.9609-1.6536zm17.82-21.847c1.731-0.89554 3.382-2.5555 4.2016-4.2245 0.62643-1.2756 0.73303-1.8197 0.73303-3.7416 0-2.701-0.74395-4.5804-2.5135-6.35-3.264-3.264-8.688-3.4032-12.207-0.31329-0.51606 0.4531-1.3441 1.5722-1.84 2.4868-0.8364 1.5425-0.90162 1.8354-0.90038 4.0442 0 1.8697 0.12253 2.644 0.56549 3.6043 1.009 2.1875 3.0317 4.0418 5.3551 4.9094 1.4917 0.55704 5.1739 0.32557 6.6059-0.41526zm-280.15 10.297c-3.4508-0.9167-6.1822-2.487-8.761-5.0367-1.9251-1.9034-2.47-2.6461-3.511-4.786-1.6234-3.3372-2.0984-5.6277-1.9423-9.3662 0.20724-4.963 1.8451-8.8264 5.2185-12.309 7.2864-7.5233 18.968-7.7595 26.544-0.53679 1.1385 1.0853 2.1773 2.174 2.3085 2.4192 0.19767 0.36936-0.4042 0.8934-3.509 3.0552-2.0612 1.4352-3.9027 2.704-4.0922 2.8197-0.22714 0.13864-0.62343-0.10738-1.1632-0.72217-0.45028-0.51285-1.6101-1.3219-2.5773-1.7978-1.5873-0.78105-1.9781-0.8632-4.0123-0.84352-1.6693 0.0161-2.5624 0.16201-3.4443 0.56248-1.777 0.80697-3.5743 2.5379-4.4169 4.2538-0.64657 1.3167-0.74246 1.8195-0.74246 3.8932 0 2.0647 0.0971 2.5791 0.73082 3.8694 0.9655 1.966 2.8536 3.7032 4.8388 4.4521 3.2064 1.2096 7.3124 0.29568 9.4873-2.1117 0.52196-0.57775 1.0148-1.0504 1.0952-1.0504 0.14379 0 7.4305 4.9096 7.9017 5.324 0.6652 0.58497-3.1074 4.3625-6.0224 6.0303-2.7975 1.6005-4.9823 2.1825-8.6388 2.3012-2.7067 0.0879-3.6676 0.0116-5.2917-0.41978zm39.519 0.25172c-3.7873-0.68371-7.0225-2.4342-10.013-5.4177-3.6755-3.667-5.4289-7.9396-5.4289-13.229 0-7.4919 3.9975-13.874 10.716-17.106 3.6443-1.7537 8.0786-2.2695 12.171-1.4156 2.2877 0.47734 6.1421 2.3623 8.0326 3.9281 2.9462 2.4403 5.3395 6.2282 6.2954 9.9637 0.6587 2.5741 0.59191 6.9832-0.14649 9.6712-1.6966 6.1763-6.59 11.153-12.859 13.078-2.1174 0.65009-6.5974 0.92-8.7675 0.52822zm6.9844-10.571c0.91268-0.39552 1.8903-1.1416 2.8398-2.1671 2.4887-2.6881 3.1295-6.2274 1.7089-9.439-1.899-4.293-6.8927-6.4235-11.225-4.7891-4.9755 1.8769-7.1898 7.6432-4.7692 12.42 0.61881 1.2212 2.4274 3.0904 3.5999 3.7206 2.2166 1.1915 5.4428 1.2962 7.8462 0.25459zm35.518 10.458c-3.9498-0.84704-6.761-2.3694-9.5246-5.158-3.5923-3.6248-5.2647-7.4623-5.4907-12.599-0.10602-2.4102-0.0295-3.3193 0.43341-5.15 1.1024-4.3595 3.1818-7.6483 6.5059-10.29 3.7136-2.9511 7.0676-4.1088 11.912-4.1119 2.7474-2e-3 3.4957 0.0985 5.5562 0.74432 1.3097 0.41051 2.4944 0.855 2.6326 0.98775s0.3466 0.24136 0.46302 0.24136c0.11642 0 0.21167-4.1473 0.21167-9.2163s0.06822-9.2845 0.1516-9.3679c0.08338-0.0834 2.3158 0.58756 4.9609 1.491l4.8093 1.6426 0.06809 17.152c0.0646 16.274 0.04144 17.264-0.45271 19.344-1.6307 6.8661-6.7399 12.221-13.374 14.018-2.1943 0.59417-6.7144 0.73289-8.8635 0.27201zm7.2592-10.43c2.0855-0.92249 3.4633-2.2284 4.4354-4.204 0.77185-1.5685 0.872-2.0202 0.86379-3.8957-0.0076-1.7478-0.13845-2.401-0.74279-3.7089-2.6174-5.6647-9.8064-6.9463-14.218-2.5347-4.8949 4.8949-2.6271 13.136 4.0912 14.867 1.3882 0.35769 4.1691 0.0963 5.5705-0.5236zm136.94 10.266c-7.9079-2.0648-13.386-8.3009-14.277-16.254-0.66018-5.8886 1.5976-11.969 5.9101-15.917 5.3754-4.921 12.369-6.3364 19.315-3.9093 1.0143 0.35437 1.8829 0.6443 1.9303 0.6443 0.0474 0 0.0862-0.41672 0.0862-0.92604v-0.92605h10.054v37.306h-10.054v-0.66145c0-0.79094 0.0634-0.78324-1.3746-0.16685-3.2586 1.3968-8.0584 1.7323-11.59 0.81019zm8.5322-10.512c3.0373-1.4958 4.7388-4.1908 4.7769-7.5658 0.0375-3.3223-1.283-5.9311-3.8378-7.5824-3.8529-2.4902-8.3664-1.954-11.433 1.3584-2.9414 3.177-3.2094 7.5528-0.68722 11.219 1.6534 2.4031 4.1298 3.5944 7.2855 3.5046 1.7952-0.0511 2.3967-0.1952 3.8957-0.93346zm-108.68 10.623c-7.4178-1.5448-12.918-6.3962-14.862-13.109-1.1241-3.8811-1.0729-7.3582 0.16721-11.352 1.2626-4.0662 4.9689-8.4304 8.9128-10.495 9.7694-5.1144 21.556-1.0048 26.001 9.0657 0.9805 2.2213 1.3629 4.3237 1.528 8.4005l0.15802 3.9026h-13.135c-7.3024 0-13.135 0.10253-13.135 0.23089 0 0.40367 2.2856 2.3554 3.4599 2.9545 2.9675 1.5139 7.4735 0.93314 9.8211-1.2659l0.71331-0.66816 3.4539 3.2533c1.8996 1.7893 3.4539 3.3489 3.4539 3.4657 0 0.11685-0.74414 0.83293-1.6536 1.5913-1.9661 1.6393-5.1576 3.1844-7.7913 3.7719-1.7294 0.38577-5.7634 0.52981-7.0915 0.25321zm10.451-23.586c0-0.11523-0.50602-0.7045-1.1245-1.3095-3.5393-3.4623-9.0284-3.4623-12.568 0-0.61846 0.60499-1.1245 1.1943-1.1245 1.3095 0 0.11522 3.3338 0.20949 7.4083 0.20949 4.0746 0 7.4083-0.0943 7.4083-0.20949zm48.683 23.349c-0.94588-0.20131-2.8509-0.93134-4.2333-1.6223-2.091-1.0451-2.9154-1.6584-4.904-3.6478-2.5335-2.5346-3.7525-4.5564-4.7918-7.9478-0.74509-2.4312-0.69076-7.8427 0.10359-10.319 1.6863-5.2563 4.8737-8.9904 9.7461-11.418 2.8927-1.4411 4.9696-1.9234 8.3129-1.9306 3.1311-7e-3 5.3488 0.49997 8.0698 1.8437 3.9953 1.973 6.9332 4.9637 8.7899 8.9478 1.2625 2.709 1.6512 4.8449 1.6566 9.1027l5e-3 3.6356-26.221 0.1372 1.1383 1.1619c1.6986 1.7338 3.9368 2.6982 6.2795 2.7056 2.2828 7e-3 4.136-0.56556 5.7051-1.7633l1.1622-0.8871 3.3885 3.1737c1.8637 1.7456 3.4246 3.2768 3.4688 3.4029 0.14324 0.40844-3.2035 2.9245-5.1397 3.864-3.8539 1.87-8.4134 2.4376-12.535 1.5603zm11.397-23.633c-0.84126-1.5719-3.9558-3.3441-6.3718-3.6255-2.7138-0.31611-6.2039 1.1195-7.796 3.2069l-0.69522 0.91149h7.5634c7.2958 0 7.5541-0.0174 7.2996-0.49288zm-42.353-1.2987v-25.075l4.6964-1.5532c2.583-0.85426 4.8452-1.6086 5.0271-1.6763 0.26322-0.098 0.33073 5.3379 0.33073 26.628v26.751h-10.054z" style="stroke-width:.26458"/>
 </g>
</svg>